<svg xmlns="http://www.w3.org/2000/svg" width="160" height="65">
  <path d="M158 49.4l-3.8.4c-2.4 17.4-26.2 20.2-26.8 6.6-.3-6.2 11.6-8 23.4-9 .4-11.2-15.9 5.6-21.6-4.7-5-9 14.6-18 16.7-16 6.5 5.6 3.4 6.5-1.4 8.3-9.5 3.4-5.8 4-4.5 3.7 7.6-2.3 14.4-1 14.3 8.3l3.8-.3c2.3-.2 2.5 2.5-.2 2.7zm-7.6.7c-9.1 1-17 2.5-16.1 5.4 1.7 5.6 13.5 6.8 16.1-5.4zM117.7 45c-.7 0-.7-6 0-11.7 1-7 12-3.3 9.2-1.9-3 1.5-4.4 8.7-6.3 12.1-.6 1.2-2.6 1.5-3 1.5zM42 21c2.4 4.9-5 8.2-8.3 4.5-1.4-1.5-.7-4.5 2.6-6.2 1.7-.8 4.1-1.6 5.7 1.7zm15-2.1c2.5 5.3-5.4 8.9-9 4.9-1.6-1.7-.9-5 2.8-6.8 1.8-.9 4.4-1.7 6.2 1.9zM28.9 61.7c-8 5.3-14.2 4.1-12.2-10.9 1.4-10.9-1-11.5-3.2-9.4C10.7 44 9 51 9 57.8a51 51 0 001 4.8c.3 1.6-5 3.3-8 1C.9 62.8 0 54.9 0 44 0 35.3 1.2 29.2 2.2 29c8-2.2 9.3 1.3 7.6 8a47.6 47.6 0 00-1.4 7.9c1.7-4.7 4-8.5 6.8-10.2 7.4-4.7 13.6-2.5 12.5 6.8-2 16.6-2.2 18.8-.4 17.5 2.2-1.5 3.6 1.3 1.6 2.7zm26-2.1c-2 3.5-7.7 5.2-13.1 4.5-7.8-.8-12.6-7.7-10.7-18 2-11.2 18-18.4 23.2-10.4 3.7 5.8-2.2 16-11.6 19.8l-.5.2c2 5.1 6.5 7.4 11 2.3 2.1-2.3 3.6-1.3 1.8 1.6zm-13.5-7.4c5.8-4.2 7.8-13.3 6.2-16-1.8-2.6-5.1 1.6-6.3 11.8v4.2zM83 45a12.3 12.3 0 01-6 5c-2.4.8-5.2.1-5.2-2.6 0-1 1-3.4 3.7-4.8-.2-1.9-1.4-2.4-2.3-1.7-3.4 2.6-7.4 12.3-6.4 19.3v.5l.6 1.8c.6 1.6-4.9 3.3-8 1-1-.8-1.6-7-1.6-17.7 0-8.8 2-16.7 3-17 6.5-1.7 10.2 1.4 8.2 7.3a65 65 0 00-2.8 10.4c2.4-6.7 6.5-12.9 9.8-14.5 5.8-3 10 1 8.8 7.8v.5l-.5 1.7c-.5 1.7-.9 2.3-1.3 3z"/>
  <path d="M113.2 26.2a87 87 0 00-1.1 7.5c-1 10-.6 19 .6 23 .7 2.1 3.5 5 6 2 3-3.2 6-1.3 2.3 2.4a14.3 14.3 0 01-11 3.4c-3.2-.3-5.1-2.4-6.2-5.5-.5 1-1 1.7-1.6 2.3a9.3 9.3 0 01-8 3.1c-6.6-.7-10.5-7.9-8.6-18.1 1.9-10.8 11.3-14.7 16.7-11.9l.3-4 .1-1a97 97 0 01-5 1C73.8 34.4 82 15 88 9.8c6.6-5.8 7.4-2 5.3-.6-3.7 2.3-5.3 15.9 5.2 15.9a47 47 0 005-.3C106.7 6.5 116.7-2.4 124.7.5c9 3.3 8 17.6-11.5 25.7zm-11 24.4a156 156 0 010-11.7v-1.4c-3.4-1.6-6.7 3.6-7.5 10.7-1 8.4 2.8 12.9 4.9 10.8 1.6-1.6 2.5-6.8 2.7-8.4zm24.2-43.2c-1.8-2.7-8.3.6-12.1 14.3 9.5-4.5 13.3-12.4 12-14.3z"/>
</svg>
