<svg xmlns="http://www.w3.org/2000/svg" width="26" height="15">
  <path fill="#FFF" d="M16.1 11.5c1-.3 2.2 2 3.5 3 1 .6 1.7.5 1.7.5h3.5s1.8-.2 1-1.6c0-.1-.5-1-2.6-3-2.2-2-1.9-1.8.7-5.3 1.6-2.1 2.3-3.5 2-4-.1-.6-1.3-.4-1.3-.4h-4c-.3 0-.6.1-.8.5 0 0-.6 1.7-1.4 3.1-1.7 3-2.4 3.2-2.7 3-.7-.5-.5-1.8-.5-2.7 0-2.9.4-4.1-.9-4.4-.4-.1-.7-.2-1.8-.2-1.4 0-2.6 0-3.2.3-.5.3-.8.7-.6.8.2 0 .8.1 1.1.6.4.5.4 1.7.4 1.7s.3 3.5-.5 3.9c-.5.3-1.3-.3-2.8-3-.8-1.4-1.4-3-1.4-3L5.2 1 4.6.7H.8S.3.7.1.9c-.2.3 0 .7 0 .7S3 8.5 6.3 12c3 3.1 6.4 3 6.4 3h1.6s.4-.1.7-.4c.2-.2.2-.7.2-.7s0-2 1-2.4z"/>
</svg>
